<svg width="50" height="50" viewBox="0 0 50 50" fill="none" xmlns="http://www.w3.org/2000/svg">
<rect width="50" height="50" fill="#E5E5E5"/>
<g clip-path="url(#clip0_0_1)">
<rect width="1440" height="4888" transform="translate(-250 -4572)" fill="white"/>
<rect width="1440" height="661" transform="translate(-250 -345)" fill="white"/>
<rect width="50" height="50" rx="10" fill="#FAFBFC"/>
<mask id="mask0_0_1" style="mask-type:luminance" maskUnits="userSpaceOnUse" x="11" y="11" width="28" height="28">
<rect x="11" y="11" width="28" height="28" fill="white"/>
</mask>
<g mask="url(#mask0_0_1)">
<path fill-rule="evenodd" clip-rule="evenodd" d="M38.946 16.3301C37.8962 16.7906 36.7842 17.0938 35.646 17.2301C36.8434 16.5106 37.7399 15.3821 38.17 14.0531C37.0386 14.7117 35.8059 15.1783 34.522 15.4341C32.9117 13.7183 30.417 13.1595 28.2287 14.0245C26.0403 14.8896 24.6019 17.003 24.6 19.3561C24.6 19.798 24.6497 20.2378 24.7482 20.6678C20.1324 20.4469 15.8288 18.2721 12.913 14.6871C12.3984 15.5617 12.1299 16.5593 12.136 17.5741C12.1343 19.4943 13.0924 21.2881 14.6892 22.3542C13.7776 22.3252 12.886 22.0786 12.089 21.6351L12.089 21.7061C12.0874 24.4392 14.0114 26.7945 16.6895 27.3382C15.8475 27.5654 14.965 27.5995 14.108 27.4381C14.8643 29.7768 17.0215 31.3777 19.479 31.4241C17.4484 33.0176 14.9412 33.8826 12.36 33.8801C11.9056 33.8791 11.4515 33.8528 11 33.8011C13.632 35.4845 16.6917 36.3775 19.816 36.3741C30.379 36.3741 36.148 27.6291 36.148 20.0571C36.148 19.8131 36.148 19.5671 36.131 19.3221C37.2573 18.5121 38.229 17.5065 39 16.3531L38.946 16.3301Z" fill="#B0B7C3"/>
</g>
</g>
<defs>
<clipPath id="clip0_0_1">
<rect width="1440" height="4888" fill="white" transform="translate(-250 -4572)"/>
</clipPath>
</defs>
</svg>
