<svg width="50" height="50" viewBox="0 0 50 50" fill="none" xmlns="http://www.w3.org/2000/svg">
<rect width="50" height="50" fill="#E5E5E5"/>
<g clip-path="url(#clip0_0_1)">
<rect width="1440" height="4888" transform="translate(-324 -4572)" fill="white"/>
<rect width="1440" height="661" transform="translate(-324 -345)" fill="white"/>
<rect x="-6.10352e-05" width="50" height="50" rx="10" fill="#FAFBFC"/>
<path fill-rule="evenodd" clip-rule="evenodd" d="M38.406 18.0521C38.244 17.4655 37.9341 16.9304 37.506 16.4981C37.0805 16.0675 36.5506 15.7546 35.968 15.5901C33.786 14.9991 25.005 14.9991 25.005 14.9991C25.005 14.9991 16.249 14.9841 14.045 15.5911C13.4624 15.7556 12.9325 16.0685 12.507 16.4991C12.0789 16.9314 11.769 17.4665 11.607 18.0531C11.1934 20.3107 10.9895 22.6018 10.998 24.8971C10.9918 27.1828 11.1963 29.4648 11.6089 31.7135C11.7708 32.3002 12.0808 32.8355 12.509 33.2681C12.9345 33.6986 13.4644 34.0115 14.047 34.1761C16.226 34.7681 25.01 34.7681 25.01 34.7681C25.01 34.7681 33.767 34.7681 35.973 34.1761C36.5556 34.0115 37.0855 33.6986 37.511 33.2681C37.9391 32.8357 38.249 32.3006 38.411 31.7141C38.8143 29.4641 39.0094 27.1818 38.994 24.8961C39.0094 22.6018 38.8126 20.3107 38.406 18.0523L38.406 18.0521ZM22.205 29.1291V20.6491L29.513 24.8961L22.205 29.1291Z" fill="#B0B7C3"/>
</g>
<defs>
<clipPath id="clip0_0_1">
<rect width="1440" height="4888" fill="white" transform="translate(-324 -4572)"/>
</clipPath>
</defs>
</svg>
